<?xml version="1.0" standalone="no"?>
<!DOCTYPE svg PUBLIC "-//W3C//DTD SVG 20010904//EN"
 "http://www.w3.org/TR/2001/REC-SVG-20010904/DTD/svg10.dtd">
<svg version="1.0" xmlns="http://www.w3.org/2000/svg"
 width="700.000000pt" height="700.000000pt" viewBox="0 0 700.000000 700.000000"
 preserveAspectRatio="xMidYMid meet">
<metadata>
Created by potrace 1.14, written by Peter Selinger 2001-2017
</metadata>
<g transform="translate(0.000000,700.000000) scale(0.100000,-0.100000)"
fill="#000000" stroke="none">
<path d="M1453 6556 c-475 -237 -863 -433 -863 -436 0 -7 1707 -860 1723 -860
14 0 1727 852 1727 860 0 3 -388 199 -863 436 l-862 432 -862 -432z m998 -287
c27 -12 65 -39 85 -61 34 -38 36 -44 32 -95 -4 -44 -11 -60 -38 -88 -59 -60
-191 -93 -292 -72 -190 40 -244 206 -97 297 26 15 66 32 90 38 65 13 164 5
220 -19z"/>
<path d="M444 4795 c1 -629 3 -1146 6 -1148 8 -8 385 -195 995 -492 116 -56
320 -156 455 -222 274 -134 285 -139 296 -122 13 22 11 2239 -3 2250 -10 9
-1663 838 -1724 866 l-26 11 1 -1143z m343 751 c46 -23 92 -76 125 -143 24
-49 31 -79 35 -145 4 -73 2 -88 -19 -127 -40 -76 -91 -100 -163 -74 -105 37
-187 185 -181 326 6 145 97 218 203 163z m557 -881 c126 -60 204 -296 140
-421 -69 -132 -222 -91 -305 81 -34 72 -41 102 -39 177 1 90 36 152 100 177
30 12 57 8 104 -14z m586 -1042 c24 -21 54 -63 75 -106 77 -155 49 -321 -60
-357 -110 -36 -250 118 -263 288 -13 198 115 288 248 175z"/>
<path d="M3310 5504 c-476 -238 -870 -436 -875 -441 -7 -6 -10 -351 -9 -1009
1 -549 2 -1001 3 -1003 2 -7 151 141 161 161 7 10 5 29 -4 55 -55 159 79 403
222 403 40 0 50 -5 84 -40 21 -23 38 -47 38 -55 0 -8 3 -15 8 -15 4 0 238 232
521 515 566 567 510 522 606 488 22 -8 58 -20 80 -27 l40 -13 0 703 c0 386 -2
704 -5 707 -3 2 -394 -191 -870 -429z m699 37 c110 -77 73 -353 -61 -454 -96
-72 -198 -42 -229 68 -61 217 144 489 290 386z m-1136 -554 c56 -36 85 -154
62 -252 -32 -139 -125 -243 -223 -247 -79 -3 -136 75 -135 186 1 78 6 104 36
169 60 132 179 198 260 144z m581 -341 c73 -31 108 -128 87 -243 -22 -119 -82
-211 -164 -248 -80 -38 -141 -12 -180 74 -44 99 -10 251 83 365 16 19 106 66
128 66 7 0 27 -6 46 -14z"/>
<path d="M4568 3383 l307 -918 65 -21 c36 -11 72 -23 80 -27 8 -3 222 -74 475
-157 253 -83 469 -155 480 -160 11 -5 119 -41 240 -80 121 -39 229 -75 240
-80 40 -17 246 -82 250 -79 5 6 -600 1818 -611 1828 -5 5 -405 140 -889 301
-484 160 -890 296 -903 301 -13 5 -27 9 -32 9 -4 0 130 -413 298 -917z m1002
-83 c95 -48 180 -175 180 -267 0 -213 -302 -174 -410 52 -42 89 -41 148 3 200
50 58 132 63 227 15z"/>
<path d="M3223 3461 l-809 -809 44 -129 c24 -70 75 -218 112 -328 38 -110 117
-339 175 -510 59 -170 135 -393 170 -495 57 -167 118 -345 130 -377 2 -7 366
349 809 792 l805 804 -309 927 c-170 510 -311 928 -313 931 -2 2 -368 -361
-814 -806z m714 283 c77 -50 76 -227 -1 -345 -52 -79 -136 -138 -194 -139 -42
0 -92 31 -112 69 -25 50 -29 105 -13 175 42 185 211 312 320 240z m-537 -1931
c103 -93 49 -335 -99 -437 -58 -40 -134 -47 -174 -16 -75 59 -82 182 -18 312
68 140 214 210 291 141z"/>
<path d="M4010 1445 c-535 -535 -799 -806 -790 -809 8 -3 173 -59 365 -125
193 -66 503 -172 690 -236 471 -162 747 -256 768 -262 14 -4 207 183 827 803
539 539 805 811 796 816 -9 5 -1843 618 -1850 618 -1 0 -363 -362 -806 -805z
m1008 520 c119 -71 58 -244 -115 -327 -159 -75 -307 -41 -320 75 -16 137 166
281 344 272 35 -2 74 -10 91 -20z m592 -209 c97 -45 91 -168 -12 -263 -58 -53
-115 -82 -192 -97 -215 -44 -307 126 -149 275 100 95 255 132 353 85z m618
-208 c74 -58 63 -155 -29 -246 -98 -98 -254 -138 -352 -90 -171 84 -16 334
228 367 52 8 122 -7 153 -31z m-2176 -556 c61 -38 75 -109 37 -184 -27 -52
-79 -100 -154 -140 -55 -30 -68 -32 -151 -33 -84 0 -93 2 -127 28 -83 63 -51
194 69 280 103 74 250 96 326 49z m601 -211 c89 -55 72 -173 -38 -270 -118
-103 -315 -122 -380 -37 -99 131 109 346 322 332 40 -2 74 -11 96 -25z m600
-200 c56 -35 70 -96 38 -166 -52 -115 -228 -210 -355 -191 -196 30 -164 249
51 351 97 47 197 49 266 6z"/>
</g>
</svg>
