<?xml version="1.0" encoding="UTF-8"?>
<!-- Created with Inkscape (http://www.inkscape.org/) -->
<svg width="195.09mm" height="80.163mm" version="1.1" viewBox="0 0 195.09 80.163" xml:space="preserve" xmlns="http://www.w3.org/2000/svg"><g transform="translate(-7.29 -7.3778)"><g transform="matrix(.18917 0 0 .18917 3.2041 7.3778)">
	
		<path d="m189.29 385.22 112.52 38.538 98.514-98.509-113.3-37.765zm50.668-6.016c-5.96 5.96-15.672 8.54-21.699 5.76-6.021-2.78-6.077-9.861-0.113-15.821 5.96-5.96 15.672-8.54 21.699-5.76 6.026 2.78 6.072 9.861 0.113 15.821zm36.336 12.728c-5.96 5.96-15.672 8.54-21.699 5.76-6.021-2.78-6.077-9.861-0.113-15.821 5.965-5.96 15.672-8.54 21.699-5.76 6.022 2.78 6.073 9.861 0.113 15.821zm73.262-56.991c5.96-5.96 15.672-8.54 21.699-5.76 6.021 2.78 6.077 9.861 0.118 15.821s-15.672 8.54-21.699 5.76-6.077-9.861-0.118-15.821zm-36.229-11.909c5.96-5.96 15.672-8.54 21.699-5.76 6.021 2.78 6.077 9.861 0.113 15.821-5.96 5.96-15.672 8.54-21.699 5.76-6.021-2.78-6.072-9.861-0.113-15.821zm-0.916 64.988c6.021 2.78 6.077 9.861 0.113 15.821-5.96 5.96-15.672 8.54-21.699 5.76s-6.077-9.861-0.118-15.821c5.965-5.954 15.677-8.535 21.704-5.76zm-13.722-83.481c6.021 2.78 6.077 9.861 0.113 15.821-5.96 5.96-15.672 8.54-21.699 5.76-6.021-2.78-6.077-9.861-0.113-15.821 5.96-5.96 15.673-8.535 21.699-5.76z"/>
		<path d="m402.16 311.63-37.202-111.61-111.61-37.207 37.202 111.61zm-82.877-87.516c4.168-4.168 12.544-2.555 18.708 3.61s7.782 14.541 3.61 18.708c-4.168 4.168-12.544 2.555-18.708-3.61-6.165-6.164-7.783-14.541-3.61-18.708z"/>
		<path d="m135.17 0-105.23 52.613 105.23 52.613 105.23-52.613zm0 63.288c-8.714 0-15.785-4.782-15.785-10.675 0-5.898 7.066-10.675 15.785-10.675s15.785 4.782 15.785 10.675c-6e-3 5.898-7.071 10.675-15.785 10.675z"/>
		<path d="m162.22 201.73c5.028-1.853 9.231 1.08 10.685 6.702l63.022-63.022 12.805 4.27v-86.149l-106.82 53.412v122.48l10.798-10.798c-1.101-1.951-1.761-4.48-1.761-7.475 0-8.433 5.049-17.127 11.27-19.421zm68.736-114.86c6.226-2.294 11.269 2.678 11.269 11.105s-5.043 17.121-11.269 19.415-11.269-2.678-11.269-11.105c-1e-3 -8.428 5.043-17.121 11.269-19.415zm-32.113 55.137c6.226-2.294 11.269 2.678 11.269 11.105s-5.043 17.121-11.269 19.415-11.269-2.678-11.269-11.105 5.048-17.121 11.269-19.415zm-47.893-1.828c0-8.427 5.043-17.121 11.269-19.415s11.269 2.678 11.269 11.105c0 8.428-5.043 17.121-11.269 19.415-6.225 2.294-11.269-2.677-11.269-11.105z"/>
		<path d="m21.599 202.84 105.31 51.579 1.51-1.51v-135.97l-106.82-53.412zm86.256-1.111c6.226 2.294 11.269 10.988 11.269 19.415s-5.043 13.399-11.269 11.105-11.269-10.988-11.269-19.415 5.049-13.399 11.269-11.105zm-32.844-61.43c6.226 2.294 11.269 10.987 11.269 19.415 0 8.427-5.043 13.399-11.269 11.105s-11.269-10.988-11.269-19.415c-1e-3 -8.427 5.048-13.399 11.269-11.105zm-33.803-53.432c6.226 2.294 11.269 10.987 11.269 19.415 0 8.427-5.043 13.399-11.269 11.105s-11.269-10.987-11.269-19.415c0-8.427 5.043-13.399 11.269-11.105z"/>
		<path d="m239.73 164.64-98.514 98.504 38.543 112.53 97.736-97.746zm-42.071 173.93c-5.96 5.96-13.046 5.909-15.821-0.118-2.775-6.026-0.2-15.739 5.76-21.699s13.046-5.909 15.821 0.113 0.2 15.744-5.76 21.704zm32.87-116.79c-5.96 5.96-13.046 5.908-15.821-0.113-2.78-6.021-0.2-15.739 5.76-21.699s13.046-5.908 15.821 0.113c2.781 6.026 0.2 15.739-5.76 21.699z"/>
	
</g><g stroke-width=".26458" aria-label="The Game Room"><path d="m94.781 25.849h-4.6302v13.56h-2.2049v-13.56h-4.6302v-2.0946h11.465z"/><path d="m103.16 27.503q1.8521 0 2.8663 1.1245 1.0142 1.1245 1.0142 3.175v7.6068h-2.3372v-7.6068q0-1.1024-0.55121-1.7088-0.55122-0.60634-1.5434-0.60634-2.7561 0-2.7561 3.3514v6.5705h-2.3372v-16.536h2.3372v6.9674h0.22049q0.0992-1.1796 0.8599-1.7529 0.76067-0.58429 2.2269-0.58429z"/><path d="m120.62 33.103q0 0.80478-0.0661 1.4993h-7.8934q0.30868 1.4552 1.3891 2.2159 1.0804 0.76068 2.8443 0.76068 1.356 0 2.8663-0.30868l0.28663 2.0505q-1.6206 0.30868-3.4175 0.30868-1.9954 0-3.3955-0.70556-1.3891-0.70556-2.1167-2.0615-0.72761-1.367-0.72761-3.3183 0-1.8962 0.61736-3.2522t1.797-2.0726q1.1906-0.71658 2.8553-0.71658 2.3813 0 3.6711 1.4442 1.2898 1.4442 1.2898 4.1562zm-2.1167-0.28663q0-1.5655-0.74966-2.4143-0.73862-0.84887-2.0726-0.84887-1.356 0-2.1608 0.84887-0.80478 0.84887-0.94809 2.4143z"/><path d="m94.781 67.625q-0.73863 0.24254-1.8631 0.452-1.1245 0.20946-2.4143 0.20946-7.0115 0-7.0115-8.0698 0-2.5356 0.79375-4.3326 0.80478-1.808 2.3372-2.7451 1.5324-0.94809 3.6821-0.94809 4.4759 0 4.4759 3.7262h-2.1608q0-0.8599-0.62839-1.2788t-1.8852-0.41892q-1.345 0-2.3041 0.69453-0.94809 0.68351-1.4552 2.0064-0.49609 1.3229-0.49609 3.186 0 3.0758 1.2347 4.6192 1.2347 1.5324 3.6821 1.5324 0.91502 0 1.9182-0.22049v-3.7042h-3.1971v-2.0946h5.2917z"/><path d="m108.43 66.192v1.8741l-3.7483 0.11024-0.11024-2.5797h-0.23151q-0.12127 1.3229-1.1245 2.0064-0.99219 0.68351-2.6569 0.68351-1.83 0-2.8332-0.87092-1.0032-0.88194-1.0032-2.5025 0-1.8521 1.345-2.8443 1.356-0.99219 3.8365-0.99219 1.345 0 2.3151 0.27561v-0.62839q0-1.1906-0.8158-1.7749-0.80477-0.58429-2.4474-0.67248l-2.8002-0.13229 0.22049-1.9844 2.3592 0.08819q2.8884 0.11024 4.2995 1.3119 1.4111 1.2016 1.4111 3.5168v4.8727zm-7.4965 0.22049q1.0363 0 1.7749-0.3638 0.74966-0.3638 1.1245-0.94809 0.38585-0.58429 0.38585-1.2237v-0.70556q-0.55121-0.14332-1.1024-0.17639-0.54019-0.0441-1.367-0.0441-1.3891 0-2.1056 0.44097-0.71658 0.44097-0.71658 1.3009 0 0.84887 0.50712 1.2898 0.50712 0.42995 1.4993 0.42995z"/><path d="m118.57 56.16q1.2127 0 1.7639 0.65043 0.55122 0.65044 0.55122 2.1056v9.1502h-2.3372v-8.9297q0-0.61736-0.22049-0.91502t-0.68351-0.29766q-1.1465 0-1.1465 1.5875v8.5549h-1.9844v-9.1502q0-0.99219-0.92605-0.99219-1.1245 0-1.1245 1.5875v8.5549h-2.3372v-11.686h2.0726l0.15434 1.4552h0.17639q0.0661-0.84887 0.55121-1.2568 0.4961-0.41892 1.4552-0.41892 0.74966 0 1.2347 0.42995 0.48507 0.41892 0.65043 1.2457h0.18742q0.0551-0.71658 0.56224-1.1906 0.51814-0.48507 1.4001-0.48507z"/><path d="m133.85 61.76q0 0.80478-0.0661 1.4993h-7.8934q0.30868 1.4552 1.3891 2.2159 1.0804 0.76068 2.8443 0.76068 1.356 0 2.8663-0.30868l0.28663 2.0505q-1.6206 0.30868-3.4175 0.30868-1.9954 0-3.3955-0.70556-1.3891-0.70556-2.1167-2.0615-0.72761-1.367-0.72761-3.3183 0-1.8962 0.61736-3.2522 0.61737-1.356 1.797-2.0726 1.1906-0.71658 2.8553-0.71658 2.3812 0 3.6711 1.4442 1.2898 1.4442 1.2898 4.1562zm-2.1167-0.28663q0-1.5655-0.74965-2.4143-0.73863-0.84887-2.0726-0.84887-1.356 0-2.1608 0.84887-0.80478 0.84887-0.94809 2.4143z"/><path d="m158.5 68.066-2.8332-5.9531h-3.3624v5.9531h-2.2049v-15.655h5.4019q1.6096 0 2.7561 0.56224 1.1465 0.55122 1.7418 1.6206 0.59531 1.0583 0.59531 2.5576 0 1.6757-0.6835 2.8332-0.68351 1.1576-1.9734 1.6977l3.2301 6.3831zm-6.1957-8.0478h3.197q1.3119 0 2.0395-0.69453 0.73863-0.69453 0.73863-1.9513 0-1.367-0.72761-2.1167-0.7276-0.74965-2.0505-0.74965h-3.197z"/><path d="m168.42 68.286q-1.6096 0-2.7671-0.70556-1.1465-0.71658-1.7529-2.0726-0.59532-1.367-0.59532-3.2852t0.59532-3.2742q0.60633-1.367 1.7529-2.0726 1.1576-0.71658 2.7671-0.71658t2.7561 0.71658q1.1576 0.70556 1.7529 2.0726 0.60634 1.356 0.60634 3.2742t-0.60634 3.2852q-0.59531 1.356-1.7529 2.0726-1.1465 0.70556-2.7561 0.70556zm0-2.0946q1.2898 0 1.9844-1.0253 0.70556-1.0363 0.70556-2.9435t-0.70556-2.9325q-0.69453-1.0363-1.9844-1.0363-1.2898 0-1.9954 1.0363-0.69454 1.0253-0.69454 2.9325t0.69454 2.9435q0.70555 1.0253 1.9954 1.0253z"/><path d="m181.65 68.286q-1.6096 0-2.7671-0.70556-1.1465-0.71658-1.7529-2.0726-0.59532-1.367-0.59532-3.2852t0.59532-3.2742q0.60633-1.367 1.7529-2.0726 1.1576-0.71658 2.7671-0.71658t2.7561 0.71658q1.1576 0.70556 1.7529 2.0726 0.60634 1.356 0.60634 3.2742t-0.60634 3.2852q-0.59531 1.356-1.7529 2.0726-1.1465 0.70556-2.7561 0.70556zm0-2.0946q1.2898 0 1.9844-1.0253 0.70556-1.0363 0.70556-2.9435t-0.70556-2.9325q-0.69453-1.0363-1.9844-1.0363-1.2898 0-1.9954 1.0363-0.69454 1.0253-0.69454 2.9325t0.69454 2.9435q0.70555 1.0253 1.9954 1.0253z"/><path d="m197.95 56.16q1.2127 0 1.7639 0.65043 0.55121 0.65044 0.55121 2.1056v9.1502h-2.3372v-8.9297q0-0.61736-0.22049-0.91502t-0.68351-0.29766q-1.1465 0-1.1465 1.5875v8.5549h-1.9844v-9.1502q0-0.99219-0.92605-0.99219-1.1245 0-1.1245 1.5875v8.5549h-2.3372v-11.686h2.0726l0.15434 1.4552h0.17639q0.0662-0.84887 0.55122-1.2568 0.49609-0.41892 1.4552-0.41892 0.74965 0 1.2347 0.42995 0.48507 0.41892 0.65043 1.2457h0.18742q0.0551-0.71658 0.56224-1.1906 0.51814-0.48507 1.4001-0.48507z"/></g></g></svg>
