<?xml version="1.0" encoding="UTF-8" standalone="no"?>
<!-- Created with Inkscape (http://www.inkscape.org/) -->

<svg
   width="192.9713mm"
   height="80.162895mm"
   viewBox="0 0 192.9713 80.162895"
   version="1.1"
   id="svg5"
   xml:space="preserve"
   inkscape:export-filename="logo1.svg"
   inkscape:export-xdpi="96"
   inkscape:export-ydpi="96"
   xmlns:inkscape="http://www.inkscape.org/namespaces/inkscape"
   xmlns:sodipodi="http://sodipodi.sourceforge.net/DTD/sodipodi-0.dtd"
   xmlns="http://www.w3.org/2000/svg"
   xmlns:svg="http://www.w3.org/2000/svg"><sodipodi:namedview
     id="namedview7"
     pagecolor="#ffffff"
     bordercolor="#000000"
     borderopacity="0.25"
     inkscape:showpageshadow="2"
     inkscape:pageopacity="0.0"
     inkscape:pagecheckerboard="0"
     inkscape:deskcolor="#d1d1d1"
     inkscape:document-units="mm"
     showgrid="false" /><defs
     id="defs2" /><g
     inkscape:label="Layer 1"
     inkscape:groupmode="layer"
     id="layer1"
     transform="translate(-7.2900096,-7.3777668)"><g
       style="fill:#000000"
       id="g38"
       transform="matrix(0.18917185,0,0,0.18917185,3.2040868,7.3777668)"><g
         id="g23">
	<g
   id="g21">
		<path
   d="m 189.294,385.219 112.522,38.538 98.514,-98.509 -113.3,-37.765 z m 50.668,-6.016 c -5.96,5.96 -15.672,8.54 -21.699,5.76 -6.021,-2.78 -6.077,-9.861 -0.113,-15.821 5.96,-5.96 15.672,-8.54 21.699,-5.76 6.026,2.78 6.072,9.861 0.113,15.821 z m 36.336,12.728 c -5.96,5.96 -15.672,8.54 -21.699,5.76 -6.021,-2.78 -6.077,-9.861 -0.113,-15.821 5.965,-5.96 15.672,-8.54 21.699,-5.76 6.022,2.78 6.073,9.861 0.113,15.821 z M 349.56,334.94 c 5.96,-5.96 15.672,-8.54 21.699,-5.76 6.021,2.78 6.077,9.861 0.118,15.821 -5.959,5.96 -15.672,8.54 -21.699,5.76 -6.027,-2.78 -6.077,-9.861 -0.118,-15.821 z m -36.229,-11.909 c 5.96,-5.96 15.672,-8.54 21.699,-5.76 6.021,2.78 6.077,9.861 0.113,15.821 -5.96,5.96 -15.672,8.54 -21.699,5.76 -6.021,-2.78 -6.072,-9.861 -0.113,-15.821 z m -0.916,64.988 c 6.021,2.78 6.077,9.861 0.113,15.821 -5.96,5.96 -15.672,8.54 -21.699,5.76 -6.027,-2.78 -6.077,-9.861 -0.118,-15.821 5.965,-5.954 15.677,-8.535 21.704,-5.76 z m -13.722,-83.481 c 6.021,2.78 6.077,9.861 0.113,15.821 -5.96,5.96 -15.672,8.54 -21.699,5.76 -6.021,-2.78 -6.077,-9.861 -0.113,-15.821 5.96,-5.96 15.673,-8.535 21.699,-5.76 z"
   id="path9" />
		<path
   d="M 402.158,311.634 364.956,200.023 253.345,162.816 290.547,274.422 Z m -82.877,-87.516 c 4.168,-4.168 12.544,-2.555 18.708,3.61 6.164,6.165 7.782,14.541 3.61,18.708 -4.168,4.168 -12.544,2.555 -18.708,-3.61 -6.165,-6.164 -7.783,-14.541 -3.61,-18.708 z"
   id="path11" />
		<path
   d="M 135.171,0 29.939,52.613 135.17,105.226 240.396,52.613 Z m 0,63.288 c -8.714,0 -15.785,-4.782 -15.785,-10.675 0,-5.898 7.066,-10.675 15.785,-10.675 8.719,0 15.785,4.782 15.785,10.675 -0.006,5.898 -7.071,10.675 -15.785,10.675 z"
   id="path13" />
		<path
   d="m 162.22,201.728 c 5.028,-1.853 9.231,1.08 10.685,6.702 l 63.022,-63.022 12.805,4.27 V 63.529 l -106.819,53.412 v 122.481 l 10.798,-10.798 c -1.101,-1.951 -1.761,-4.48 -1.761,-7.475 0,-8.433 5.049,-17.127 11.27,-19.421 z M 230.956,86.866 c 6.226,-2.294 11.269,2.678 11.269,11.105 0,8.427 -5.043,17.121 -11.269,19.415 -6.226,2.294 -11.269,-2.678 -11.269,-11.105 -0.001,-8.428 5.043,-17.121 11.269,-19.415 z m -32.113,55.137 c 6.226,-2.294 11.269,2.678 11.269,11.105 0,8.427 -5.043,17.121 -11.269,19.415 -6.226,2.294 -11.269,-2.678 -11.269,-11.105 0,-8.427 5.048,-17.121 11.269,-19.415 z m -47.893,-1.828 c 0,-8.427 5.043,-17.121 11.269,-19.415 6.226,-2.294 11.269,2.678 11.269,11.105 0,8.428 -5.043,17.121 -11.269,19.415 -6.225,2.294 -11.269,-2.677 -11.269,-11.105 z"
   id="path15" />
		<path
   d="m 21.599,202.839 105.313,51.579 1.51,-1.51 V 116.941 L 21.599,63.529 Z m 86.256,-1.111 c 6.226,2.294 11.269,10.988 11.269,19.415 0,8.427 -5.043,13.399 -11.269,11.105 -6.226,-2.294 -11.269,-10.988 -11.269,-19.415 0,-8.427 5.049,-13.399 11.269,-11.105 z m -32.844,-61.43 c 6.226,2.294 11.269,10.987 11.269,19.415 0,8.427 -5.043,13.399 -11.269,11.105 -6.226,-2.294 -11.269,-10.988 -11.269,-19.415 -10e-4,-8.427 5.048,-13.399 11.269,-11.105 z M 41.208,86.866 c 6.226,2.294 11.269,10.987 11.269,19.415 0,8.427 -5.043,13.399 -11.269,11.105 -6.226,-2.294 -11.269,-10.987 -11.269,-19.415 0,-8.427 5.043,-13.399 11.269,-11.105 z"
   id="path17" />
		<path
   d="m 239.726,164.639 -98.514,98.504 38.543,112.533 97.736,-97.746 z m -42.071,173.926 c -5.96,5.96 -13.046,5.909 -15.821,-0.118 -2.775,-6.026 -0.2,-15.739 5.76,-21.699 5.96,-5.96 13.046,-5.909 15.821,0.113 2.775,6.022 0.2,15.744 -5.76,21.704 z m 32.87,-116.792 c -5.96,5.96 -13.046,5.908 -15.821,-0.113 -2.78,-6.021 -0.2,-15.739 5.76,-21.699 5.96,-5.96 13.046,-5.908 15.821,0.113 2.781,6.026 0.2,15.739 -5.76,21.699 z"
   id="path19" />
	</g>
</g></g><g
       aria-label="The
Game Room"
       id="text252"
       style="font-size:22.5778px;stroke-width:0.264583"><path
         d="m 94.780638,25.849014 h -4.630213 v 13.55991 h -2.204864 v -13.55991 h -4.630213 v -2.09462 h 11.46529 z"
         style="font-family:'CaskaydiaCove NF';-inkscape-font-specification:'CaskaydiaCove NF'"
         id="path310" /><path
         d="m 103.15912,27.502662 q 1.85208,0 2.86632,1.12448 1.01424,1.124481 1.01424,3.175004 v 7.606778 h -2.33716 v -7.606778 q 0,-1.102432 -0.55121,-1.70877 -0.55122,-0.606337 -1.54341,-0.606337 -2.756076,0 -2.756076,3.351392 v 6.570493 H 97.514669 V 22.872449 h 2.337155 v 6.967368 h 0.220486 q 0.0992,-1.179602 0.8599,-1.752866 0.76067,-0.584289 2.22691,-0.584289 z"
         style="font-family:'CaskaydiaCove NF';-inkscape-font-specification:'CaskaydiaCove NF'"
         id="path312" /><path
         d="m 120.62164,33.103015 q 0,0.804775 -0.0661,1.499307 h -7.89341 q 0.30868,1.45521 1.38906,2.215888 1.08039,0.760678 2.84428,0.760678 1.35599,0 2.86632,-0.308681 l 0.28663,2.050523 q -1.62057,0.30868 -3.41754,0.30868 -1.9954,0 -3.39549,-0.705556 -1.38906,-0.705556 -2.11666,-2.061547 -0.72761,-1.367015 -0.72761,-3.318319 0,-1.896183 0.61736,-3.252174 0.61736,-1.355991 1.79697,-2.072571 1.19062,-0.716581 2.85529,-0.716581 2.38126,0 3.6711,1.444185 1.28985,1.444186 1.28985,4.156168 z m -2.11667,-0.286632 q 0,-1.565453 -0.74966,-2.414326 -0.73862,-0.848872 -2.07257,-0.848872 -1.35599,0 -2.16076,0.848872 -0.80478,0.848873 -0.94809,2.414326 z"
         style="font-family:'CaskaydiaCove NF';-inkscape-font-specification:'CaskaydiaCove NF'"
         id="path314" /><path
         d="m 94.780638,67.624829 q -0.738629,0.242535 -1.86311,0.451997 -1.12448,0.209462 -2.414325,0.209462 -7.011466,0 -7.011466,-8.0698 0,-2.535593 0.793751,-4.332556 0.804775,-1.807988 2.337155,-2.745055 1.53238,-0.948091 3.682122,-0.948091 4.475873,0 4.475873,3.726219 h -2.160766 q 0,-0.859897 -0.628386,-1.278821 -0.628386,-0.418924 -1.885159,-0.418924 -1.344966,0 -2.304082,0.694532 -0.948091,0.683508 -1.45521,2.006426 -0.496094,1.322918 -0.496094,3.186027 0,3.075785 1.234724,4.619189 1.234723,1.53238 3.682121,1.53238 0.915019,0 1.918232,-0.220486 v -3.704171 h -3.197052 v -2.09462 h 5.291672 z"
         style="font-family:'CaskaydiaCove NF';-inkscape-font-specification:'CaskaydiaCove NF'"
         id="path316" /><path
         d="m 108.42874,66.191668 v 1.874134 l -3.74827,0.110243 -0.11024,-2.57969 h -0.23151 q -0.12127,1.322918 -1.12448,2.006426 -0.99219,0.683507 -2.65686,0.683507 -1.830037,0 -2.833249,-0.870921 -1.003213,-0.881945 -1.003213,-2.50252 0,-1.852085 1.344966,-2.844273 1.355991,-0.992189 3.836466,-0.992189 1.34496,0 2.3151,0.275608 v -0.628386 q 0,-1.190626 -0.8158,-1.774915 -0.80477,-0.584289 -2.44739,-0.672483 l -2.800181,-0.132292 0.220486,-1.984377 2.359205,0.08819 q 2.88837,0.110243 4.29948,1.311894 1.41112,1.20165 1.41112,3.516757 v 4.872748 z m -7.49653,0.220486 q 1.03628,0 1.77491,-0.363802 0.74966,-0.363803 1.12448,-0.948091 0.38585,-0.584289 0.38585,-1.2237 v -0.705556 q -0.55121,-0.143316 -1.10243,-0.176389 -0.54019,-0.0441 -1.36701,-0.0441 -1.38907,0 -2.105648,0.440973 -0.716581,0.440972 -0.716581,1.300869 0,0.848872 0.507119,1.289845 0.507118,0.429948 1.49931,0.429948 z"
         style="font-family:'CaskaydiaCove NF';-inkscape-font-specification:'CaskaydiaCove NF'"
         id="path318" /><path
         d="m 118.57111,56.15954 q 1.21268,0 1.76389,0.650434 0.55122,0.650435 0.55122,2.105645 v 9.150183 h -2.33715 v -8.929697 q 0,-0.617361 -0.22049,-0.915018 -0.22049,-0.297657 -0.68351,-0.297657 -1.14653,0 -1.14653,1.587502 v 8.55487 h -1.98437 v -9.150183 q 0,-0.992189 -0.92605,-0.992189 -1.12448,0 -1.12448,1.587502 v 8.55487 h -2.33715 V 56.380026 h 2.07257 l 0.15434,1.45521 h 0.17639 q 0.0661,-0.848873 0.55121,-1.256772 0.4961,-0.418924 1.45521,-0.418924 0.74966,0 1.23473,0.429948 0.48507,0.418924 0.65043,1.245748 h 0.18742 q 0.0551,-0.716581 0.56224,-1.190626 0.51814,-0.48507 1.40008,-0.48507 z"
         style="font-family:'CaskaydiaCove NF';-inkscape-font-specification:'CaskaydiaCove NF'"
         id="path320" /><path
         d="m 133.85082,61.759893 q 0,0.804775 -0.0661,1.499307 h -7.89341 q 0.30868,1.45521 1.38907,2.215887 1.08038,0.760678 2.84427,0.760678 1.35599,0 2.86632,-0.308681 l 0.28663,2.050523 q -1.62057,0.308681 -3.41753,0.308681 -1.99541,0 -3.39549,-0.705556 -1.38907,-0.705556 -2.11667,-2.061547 -0.72761,-1.367016 -0.72761,-3.31832 0,-1.896182 0.61736,-3.252173 0.61737,-1.355991 1.79697,-2.072572 1.19062,-0.71658 2.8553,-0.71658 2.38125,0 3.67109,1.444185 1.28985,1.444186 1.28985,4.156168 z m -2.11667,-0.286633 q 0,-1.565453 -0.74965,-2.414325 -0.73863,-0.848872 -2.07258,-0.848872 -1.35599,0 -2.16076,0.848872 -0.80478,0.848872 -0.94809,2.414325 z"
         style="font-family:'CaskaydiaCove NF';-inkscape-font-specification:'CaskaydiaCove NF'"
         id="path322" /><path
         d="m 158.50119,68.065802 -2.83325,-5.953131 h -0.16536 -3.19705 v 5.953131 h -2.20487 v -15.65453 h 5.40192 q 1.60955,0 2.75608,0.56224 1.14653,0.551216 1.74184,1.620575 0.59531,1.058334 0.59531,2.557641 0,1.675696 -0.6835,2.83325 -0.68351,1.157553 -1.97336,1.697744 l 3.23013,6.38308 z m -6.19566,-8.047751 h 3.19705 q 1.31189,0 2.0395,-0.694532 0.73863,-0.694532 0.73863,-1.951304 0,-1.367016 -0.72761,-2.116669 -0.7276,-0.749654 -2.05052,-0.749654 h -3.19705 z"
         style="font-family:'CaskaydiaCove NF';-inkscape-font-specification:'CaskaydiaCove NF'"
         id="path324" /><path
         d="m 168.42308,68.286288 q -1.60955,0 -2.76711,-0.705556 -1.14653,-0.716581 -1.75286,-2.072572 -0.59532,-1.367015 -0.59532,-3.285246 0,-1.918231 0.59532,-3.274222 0.60633,-1.367015 1.75286,-2.072572 1.15756,-0.71658 2.76711,-0.71658 1.60955,0 2.75608,0.71658 1.15755,0.705557 1.75286,2.072572 0.60634,1.355991 0.60634,3.274222 0,1.918231 -0.60634,3.285246 -0.59531,1.355991 -1.75286,2.072572 -1.14653,0.705556 -2.75608,0.705556 z m 0,-2.09462 q 1.28984,0 1.98437,-1.025261 0.70556,-1.036286 0.70556,-2.943493 0,-1.907207 -0.70556,-2.932468 -0.69453,-1.036286 -1.98437,-1.036286 -1.28985,0 -1.9954,1.036286 -0.69454,1.025261 -0.69454,2.932468 0,1.907207 0.69454,2.943493 0.70555,1.025261 1.9954,1.025261 z"
         style="font-family:'CaskaydiaCove NF';-inkscape-font-specification:'CaskaydiaCove NF'"
         id="path326" /><path
         d="m 181.65226,68.286288 q -1.60955,0 -2.76711,-0.705556 -1.14653,-0.716581 -1.75286,-2.072572 -0.59532,-1.367015 -0.59532,-3.285246 0,-1.918231 0.59532,-3.274222 0.60633,-1.367015 1.75286,-2.072572 1.15756,-0.71658 2.76711,-0.71658 1.60955,0 2.75608,0.71658 1.15755,0.705557 1.75286,2.072572 0.60634,1.355991 0.60634,3.274222 0,1.918231 -0.60634,3.285246 -0.59531,1.355991 -1.75286,2.072572 -1.14653,0.705556 -2.75608,0.705556 z m 0,-2.09462 q 1.28984,0 1.98437,-1.025261 0.70556,-1.036286 0.70556,-2.943493 0,-1.907207 -0.70556,-2.932468 -0.69453,-1.036286 -1.98437,-1.036286 -1.28985,0 -1.9954,1.036286 -0.69454,1.025261 -0.69454,2.932468 0,1.907207 0.69454,2.943493 0.70555,1.025261 1.9954,1.025261 z"
         style="font-family:'CaskaydiaCove NF';-inkscape-font-specification:'CaskaydiaCove NF'"
         id="path328" /><path
         d="m 197.9462,56.15954 q 1.21267,0 1.76389,0.650434 0.55121,0.650435 0.55121,2.105645 v 9.150183 h -2.33715 v -8.929697 q 0,-0.617361 -0.22049,-0.915018 -0.22049,-0.297657 -0.68351,-0.297657 -1.14653,0 -1.14653,1.587502 v 8.55487 h -1.98437 v -9.150183 q 0,-0.992189 -0.92605,-0.992189 -1.12448,0 -1.12448,1.587502 v 8.55487 h -2.33715 V 56.380026 h 2.07257 l 0.15434,1.45521 h 0.17639 q 0.0662,-0.848873 0.55122,-1.256772 0.49609,-0.418924 1.45521,-0.418924 0.74965,0 1.23472,0.429948 0.48507,0.418924 0.65043,1.245748 h 0.18742 q 0.0551,-0.716581 0.56224,-1.190626 0.51814,-0.48507 1.40009,-0.48507 z"
         style="font-family:'CaskaydiaCove NF';-inkscape-font-specification:'CaskaydiaCove NF'"
         id="path330" /></g></g></svg>
